<svg id="eyk03bKERav1" xmlns="http://www.w3.org/2000/svg" xmlns:xlink="http://www.w3.org/1999/xlink" viewBox="0 0 3840 125" shape-rendering="geometricPrecision" text-rendering="geometricPrecision" project-id="0d947be7f9e1461d92ff8a46fd51be27" export-id="fd4f1ddef30346a0acbbd4e26d6b56e7" cached="false"><rect width="3840" height="124.273139" rx="0" ry="0" transform="translate(0 0.000001)" fill="#fff" stroke-width="0"/><rect id="eyk03bKERav3" width="15.5642" height="15.9924" rx="1.5" ry="1.5" transform="matrix(.882611 0.470105-.438762 0.898603 2386.825604 84.044002)" fill="none" stroke="#000"/><g id="eyk03bKERav4" transform="matrix(.370824-.469168 0.469168 0.370824 1108.640644 919.552357)"><path id="eyk03bKERav5" d="M1771.456479,70.79975c-1.673294,7.19736-2.317435,14.335222.656518,21.7662c4.190935,10.471838,11.861281,17.328743,18.507003,20.53705c27.783508,13.412841,45.070309-23.846922,27.58-19.2671-17.499691,4.582279-28.974098-11.05093-30.29355-19.65758" fill="none" stroke="#000" stroke-linecap="round" stroke-linejoin="round"/><path id="eyk03bKERav6" d="M1785.502188,78.864816c1.414111-5.437218,5.535697-6.58622,8.4467-6.946585c4.055532-.502051,7.848852,2.695864,8.650037,3.610327c1.947123,2.222424,2.103411-6.720052-4.94488-10.795091-8.951939-5.175652-20.20513-3.085972-26.449642,5.308514m31.394522,5.486577c-1.541223-1.690683-3.628245-6.49544-9.876576-7.254077-4.059487-.49288-13.129032.586697-16.678201,8.797971" transform="matrix(.939578-.342334 0.342334 0.939578 83.287395 611.329485)" fill="none" stroke="#000" stroke-linecap="round" stroke-linejoin="round"/><path id="eyk03bKERav7" d="M1778.391075,75.749625c-.731862,14.784024,7.982355,29.179671,35.286825,36.547544" fill="none" stroke="#000" stroke-linecap="round" stroke-linejoin="round"/><g transform="matrix(.992069-.125691 0.125691 0.992069 3.801682 228.066647)"><path id="eyk03bKERav9" d="M1793.75,93.531c.52.5791,1.14.9256,1.71,1.0348s1.06-.0206,1.39-.3386c.33-.3179.49-.8175.43-1.4212s-.34-1.2768-.86-1.8559c-.51-.5791-1.13-.9256-1.7-1.0348s-1.06.0207-1.39.3386-.49.8175-.43,1.4212.34,1.2768.85,1.8559Z" transform="matrix(.97032-.401222 0.401222 0.97032 20.629255 728.217786)" fill="none" stroke="#000" stroke-linecap="round" stroke-linejoin="round"/><path id="eyk03bKERav10" d="M1786.12,87.8836c.51.5791,1.13.9256,1.7,1.0348.57.1091,1.06-.0207,1.39-.3386s.49-.8176.43-1.4212c-.06-.6038-.34-1.2769-.85-1.856s-1.13-.9256-1.71-1.0348c-.57-.1091-1.06.0207-1.39.3386-.32.318-.49.8176-.43,1.4212.06.6038.35,1.2769.86,1.856Z" transform="translate(1.883003 0.831231)" fill="none" stroke="#000" stroke-linecap="round" stroke-linejoin="round"/><path id="eyk03bKERav11" d="M1786.19,74.402628c-.07.945223.53,1.813077,1.36,1.903565s1.53-.636238,1.59-1.581461c.07-.945101-.53-1.813078-1.36-1.903566s-1.53.636361-1.59,1.581462Z" transform="matrix(.988382-.151991 0.151991 0.988382 6.97298 273.676474)" fill="none" stroke="#000" stroke-linecap="round" stroke-linejoin="round"/><path id="eyk03bKERav12" d="M1786.188329,73.721695c-.048937.54014.370525,1.036068.95078,1.087776s1.069627-.363573,1.111574-.903712c.048937-.54007-.370525-1.036068-.95078-1.087777s-1.069627.363644-1.111574.903713Z" transform="matrix(.323561-.946207 0.946207 0.323561 1139.163246 1734.231981)" fill="none" stroke="#000" stroke-linecap="round" stroke-linejoin="round"/></g></g><path id="eyk03bKERav13" d="M1113.28,86.2376c-61.466002-10.628108-106.939992-23.125168-160.4-19.8789-53.465992,3.246632-162.894,42.4083-290.811,19.8789-127.917-22.5295-174.386942-19.878594-325.288,8.6142-95.375491,18.008583-211.584061,26.035676-286.730895,28.884716C30.079499,124.493661,13.008895,124.885104,0,125.001c0,0,667.016,0,952.88,0c537.399,0,1253.931,0,1791.33,0c328.737,0,1095.79,0,1095.79,0-98.1-3.18-325.29-13.663-449.21-30.1492-154.9-20.6076-201.37,13.9152-279.32,13.9152s-260.830006-48.5122-367.26-42.4083c-73.950004,4.24113-152.900404,58.643766-262.33,28.4931-109.420404-30.148134-139.586363-13.956429-225.85,13.9152-70.384132,22.740989-173.89002,8.614096-279.82-13.9152s-145.900551-8.615923-216.36,13.9152c-70.450551,22.528277-147.899886-5.301722-296.8-28.8243-148.909886-23.524122-246.356549,24.176155-349.77,6.2949Z" transform="translate(0-.058299)" fill="#0ea8bc"/><g id="eyk03bKERav14" transform="translate(0 0.000001)"><path id="eyk03bKERav15" d="M1426.38,84.5027l-13.29-18.2256l124.82,3.8412-18.42,24.399-93.11-10.0146Z" fill="none" stroke="#000" stroke-linecap="round" stroke-linejoin="round"/><path id="eyk03bKERav17" d="M1442.951768,67.20839L1473.77,21.0601m0,0l-.796722,47.054316l36.316493,1.054822L1473.77,21.0601Z" transform="translate(0 0.000001)" fill="none" stroke="#000" stroke-linecap="round" stroke-linejoin="round"/><path id="eyk03bKERav18" d="M1473.56,10.0754l-.1,7.6346-17.48-3.8327l17.58-3.8019Z" fill="#ff71be"/></g><g id="eyk03bKERav19" transform="translate(.000002 0.000014)"><rect width="32.7388" height="32.9235" rx="0" ry="0" transform="matrix(.983878 0.17884-.209427 0.977824 2000.209864 72.63646)" fill="none" stroke="#000" stroke-linecap="round" stroke-linejoin="round"/><g><path d="M2002.4,72.9476c-.28,1.3076-1.53,2.1552-2.77,1.9294-1.25-.2258-2.06-1.4486-1.78-2.7562s1.54-2.1552,2.78-1.9294s2.05,1.4486,1.77,2.7562Z" fill="#fff" stroke="#000"/><path d="M1995.47,105.309c-.28,1.308-1.53,2.156-2.77,1.93s-2.06-1.449-1.77-2.756c.28-1.308,1.53-2.156,2.77-1.93s2.05,1.449,1.77,2.756Z" fill="#f4f7fb" stroke="#000"/><path d="M2034.81,78.8373c-.28,1.3076-1.53,2.1552-2.77,1.9293-1.24-.2258-2.05-1.4485-1.77-2.7561s1.53-2.1553,2.77-1.9294c1.24.2258,2.05,1.4486,1.77,2.7562Z" fill="#fff" stroke="#000"/><path d="M2027.87,111.199c-.28,1.308-1.53,2.156-2.77,1.93-1.25-.226-2.06-1.449-1.78-2.756.28-1.308,1.54-2.156,2.78-1.93s2.05,1.449,1.77,2.756Z" fill="#f4f7fb" stroke="#000"/></g><path id="eyk03bKERav26" d="M2008.69,104.69c0,0-4.734926-9.517497-6.76-13.5985-1.862692-3.753765-.32-8.4592,3.46-10.5068s8.35-.6634,10.22,3.0917l.02.0527c.14-.0993.28-.1946.43-.2859.13-.08.26-.1569.4-.2303c3.78-2.0476,8.35-.6634,10.22,3.0917c1.86,3.7551.310712,8.460511-3.46,10.5068-4.358178,2.365095-14.53,7.8786-14.53,7.8786Z" fill="none" stroke="#000" stroke-linecap="round" stroke-linejoin="round" stroke-dashoffset="81.05" stroke-dasharray="65,16"/></g><g id="eyk03bKERav28" opacity="0"><path id="eyk03bKERav29" d="M-1.938713,0.964579c-.00983-.739525.866313-1.752925,1.586396-2.113028C0.621153,-1.635267,1.15,-1.076467,1.15,0s-.560514,1.587538-1.192249,1.521985c-.938462-.097381-1.886634.182119-1.896464-.557406Z" transform="matrix(.487284-.873243 0.515223 0.287503 2404.962149 85.341519)" fill="#0ea8bc" stroke-width="0"/><path id="eyk03bKERav30" d="M-2.846361,0.668332c-.414129-.397971,2.052659-1.5039,3.015638-1.610185c1.261968-.139285,2.311323.206014,2.311323,1.17484s-.916368,1.04664-2.378564.853159c-1.932943-.255771-2.534268-.019843-2.948397-.417814Z" transform="matrix(.158092-.987424 0.987424 0.158092 2400.808744 84.195169)" fill="#0ea8bc" stroke-width="0"/><path id="eyk03bKERav31" d="M-4.051496,-1.67183c.304272-2.484489,2.996781-4.369563,4.991844-2.849419s1.296128,4.619665.474101,6.267279c-1.372201,2.750346-2.528312,4.309592-3.339972,4.849164s-2.606021-4.347258-2.125973-8.267024Z" transform="matrix(.897377-.441264 0.441264 0.897377 2390.185738 89.877847)" fill="#0ea8bc" stroke-width="0"/><path id="eyk03bKERav32" d="M-2.164396,0.735899c-.590258-2.047279,1.443652-5.006485,1.962095-4.855186s1.56346,1.574219,2.326251,3.654745c.442945,1.208141.340628,2.785903-.867211,3.30052-1.496035.637407-2.915309-.345648-3.421135-2.100079Z" transform="matrix(-.897994-.440009 0.440009-.897994 2391.146557 88.479758)" fill="#0ea8bc" stroke-width="0"/><path id="eyk03bKERav33" d="M-1.754215,0c-.154687-1.052343.918425-4.441527,1.551934-4.47601s1.55496,2.368474,1.75188,3.765202c.256855,1.821836-.333595,3.0358-1.514373,3.146244s-1.634754-1.383093-1.789441-2.435436Z" transform="matrix(-.706538-.094758 0.06497-.484432 2379.887738 87.393332)" fill="#0ea8bc" stroke-width="0"/><path id="eyk03bKERav34" d="M-2.674589,-1.134643c.316437-.422105,1.705426-.452203,2.501885-.312299s1.720367.568401,1.720367,1.396828-.910572,1.39342-2.158258,1.009414-2.414603-1.626255-2.063994-2.093943Z" transform="matrix(.049377-.99878 0.99878 0.049377 2375.291462 86.924099)" fill="#0ea8bc" stroke-width="0"/></g><path id="eyk03bKERav35" d="M2364.703686,113.576267c4.17137-2.654508,18.825901-3.86892,22.305443-5.678282c1.807261-.939776,2.322334-1.331992,3.043549-1.35541.66735-.021668,1.511199.272429,3.718609.740668c4.592994.974272,20.503369,1.171575,30.36297,4.205299c5.74691,1.76828-15.396734,6.436056-34.035768,7.544347-13.338749.793133-25.394802-.236667-25.394803-5.456622Z" transform="translate(.000002 0)" opacity="0" fill="#0ea8bc" stroke-width="7.68"/><path id="eyk03bKERav36" d="M2372.978866,108.034527c3.401223-.226748,10.994103-2.149787,14.854948-2.838898c3.317665-.59216,7.281591-.315716,11.176899-1.162599c5.561219-1.20907,9.772534-.15348,12.024768-.292572c5.902837-.364544,6.063982,1.852441,12.582993.491952-2.358114,2.062601-24.614802,7.861708-33.901009,8.398158-6.52348.376852-12.949334-.666433-16.738599-4.596041Z" transform="matrix(1.002966-.244308 0.181918 0.746837-626.046527 606.818736)" fill="#0ea8bc" stroke-width="7.68"/>
<script><![CDATA[
(function(s,i,u,o,c,w,d,t,n,x,e,p,a,b){(a=Array.from(d.querySelectorAll('svg#' + i.root)).filter(n=> !n.svgatorPlayer)[0]||{}).svgatorPlayer={ready:(function(a){b=[];return function(c){return c?(b.push(c),a.svgatorPlayer):b}})(a)};w[o]=w[o]||{};w[o][s]=w[o][s]||[];w[o][s].push(i);e=d.createElementNS(n,t);e.async=true;e.setAttributeNS(x,'href',[u,s,'.','j','s','?','v','=',c].join(''));e.setAttributeNS(null,'src',[u,s,'.','j','s','?','v','=',c].join(''));p=d.getElementsByTagName(t)[0];p.parentNode.insertBefore(e,p);})('91c80d77',{"root":"eyk03bKERav1","version":"2025-02-04","animations":[{"elements":{"eyk03bKERav3":{"transform":{"data":{"k":{"x":2.016173,"y":0},"s":{"x":1,"y":0.999381},"t":{"x":-7.7821,"y":-7.9962}},"keys":{"o":[{"t":600,"v":{"x":2390.185738,"y":94.887816,"type":"corner"},"e":[0.39,0.575,0.565,1]},{"t":1600,"v":{"x":2392.185738,"y":20.873635,"type":"corner"},"e":[0.55,0.085,0.68,0.53]},{"t":2400,"v":{"x":2390.185738,"y":116.281889,"type":"corner"},"e":[1,0]}],"r":[{"t":700,"v":28.041099,"e":[0.55,0.085,0.68,0.53]},{"t":2300,"v":180,"e":[1,0]}]}}},"eyk03bKERav4":{"transform":{"data":{"t":{"x":-1811.976422,"y":-108.350846}},"keys":{"o":[{"t":100,"v":{"x":1831.399817,"y":109.610034,"type":"corner"}},{"t":600,"v":{"x":1809.801846,"y":104.231093,"type":"corner"}},{"t":1100,"v":{"x":1827.712922,"y":112.272609,"type":"corner"}}],"r":[{"t":100,"v":-51.677635},{"t":600,"v":39.954492},{"t":1100,"v":127.324621}],"s":[{"t":100,"v":{"x":0.598021,"y":0.598021}},{"t":600,"v":{"x":1,"y":1.032352}},{"t":940,"v":{"x":1,"y":1},"e":[0.47,0,0.745,0.715]},{"t":1100,"v":{"x":0.454439,"y":0.454439}}]}},"opacity":[{"t":1100,"v":1},{"t":1110,"v":0}]},"eyk03bKERav5":{"d":[{"t":370,"v":["M",1771.456479,70.79975,"C",1769.783185,77.99711,1769.139044,85.134972,1772.112997,92.56595,"C",1776.303932,103.037788,1783.974278,109.894693,1790.62,113.103,"C",1818.403508,126.515841,1835.690309,89.256078,1818.2,93.8359,"C",1800.700309,98.418179,1789.225902,82.78497,1787.90645,74.17832]},{"t":630,"v":["M",1772.472144,69.996953,"C",1769.647617,76.885881,1769.139044,85.134972,1772.112997,92.56595,"C",1776.303932,103.037788,1784.503152,112.72439,1794.915549,118.545771,"C",1822.727148,134.094728,1835.690309,89.256078,1818.2,93.8359,"C",1800.700309,98.418179,1788.461891,81.739225,1787.918225,74.05336]},{"t":910,"v":["M",1773.487809,69.194156,"C",1769.512048,75.774652,1768.607107,84.780304,1770.756252,92.985732,"C",1773.614107,103.897011,1780.634857,112.487736,1798.118138,119.626937,"C",1821.854439,129.319524,1825.078829,92.147478,1818.2,93.8359,"C",1795.67462,99.364798,1787.69788,80.693479,1787.93,73.9284]}]},"eyk03bKERav6":{"d":[{"t":370,"v":["M",1785.502188,78.864816,"C",1786.916299,73.427598,1791.037885,72.278596,1793.948888,71.918231,"C",1798.00442,71.41618,1801.79774,74.614095,1802.598925,75.528558,"C",1804.546048,77.750982,1804.702336,68.808506,1797.654045,64.733467,"C",1788.702106,59.557815,1777.448915,61.647495,1771.204403,70.041981,"M",1802.598925,75.528558,"C",1801.057702,73.837875,1798.97068,69.033118,1792.722349,68.274481,"C",1788.662862,67.781601,1779.593317,68.861178,1776.044148,77.072452]},{"t":630,"v":["M",1786.925825,76.591746,"C",1787.853324,71.073595,1791.855406,68.694515,1795.281364,71.426634,"C",1797.113004,72.887323,1799.513278,76.389116,1800.314463,77.303579,"C",1802.261586,79.526003,1803.567736,73.418231,1799.638725,67.620784,"C",1794.433216,59.939804,1780.280248,59.074096,1772.511222,69.758848,"M",1800.314463,77.303579,"C",1798.762395,75.564568,1799.257407,71.424828,1794.700699,67.989822,"C",1790.638592,64.927664,1780.702954,67.345962,1777.482346,76.488788]},{"t":910,"v":["M",1787.93,73.9284,"C",1788.11947,68.40635,1794.490982,66.825626,1796.09,74.7004,"C",1796.487757,76.659257,1797.228815,78.164137,1798.03,79.0786,"C",1799.977123,81.301024,1803.300427,77.058714,1801.623404,70.5081,"C",1798.879206,59.788994,1782.972292,53.495877,1773.487809,69.194156,"M",1798.03,79.0786,"C",1796.467087,77.29126,1798.879206,73.634995,1795.593714,68.120062,"C",1791.936973,61.981961,1780.92341,65.392777,1778.8,75.4901]}],"transform":{"data":{"o":{"x":1773.462875,"y":69.722078,"type":"corner"},"t":{"x":-1773.462875,"y":-69.722078}},"keys":{"r":[{"t":370,"v":-20.019142},{"t":910,"v":0}]}}},"eyk03bKERav7":{"d":[{"t":370,"v":["M",1778.391075,75.749625,"C",1777.659213,90.533649,1786.37343,104.929296,1813.6779,112.297169]},{"t":910,"v":["M",1778.8,75.4901,"C",1775.867537,89.434666,1783.679671,108.979309,1813.6779,112.297169]}]},"eyk03bKERav9":{"transform":{"data":{"r":-22.464852,"s":{"x":1.05,"y":1.05},"t":{"x":-1795.089966,"y":-92.240555}},"keys":{"o":[{"t":370,"v":{"x":1799.44961,"y":97.490251,"type":"corner"}},{"t":910,"v":{"x":1800.201908,"y":99.265365,"type":"corner"}}]}}},"eyk03bKERav10":{"transform":{"data":{"t":{"x":-1787.450195,"y":-86.593102}},"keys":{"o":[{"t":370,"v":{"x":1789.333198,"y":87.424333,"type":"corner"}},{"t":910,"v":{"x":1789.695898,"y":90.779412,"type":"corner"}}]}}},"eyk03bKERav11":{"transform":{"data":{"r":-8.742309,"t":{"x":-1787.664917,"y":-74.563683}},"keys":{"o":[{"t":370,"v":{"x":1785.201653,"y":75.665403,"type":"corner"}},{"t":910,"v":{"x":1784.612327,"y":80.00411,"type":"corner"}}]}}},"eyk03bKERav12":{"transform":{"data":{"r":-71.121613,"t":{"x":-1787.219543,"y":-73.813728}},"keys":{"o":[{"t":370,"v":{"x":1787.280023,"y":67.034691,"type":"corner"}},{"t":910,"v":{"x":1785.021969,"y":70.469157,"type":"corner"}}]}}},"eyk03bKERav13":{"d":[{"t":0,"v":["M",1113.28,86.2376,"C",1051.813998,75.609492,1006.340008,63.112432,952.88,66.3587,"C",899.414008,69.605332,789.986,108.767,662.069,86.2376,"C",534.152,63.7081,487.682058,66.359006,336.781,94.8518,"C",241.405509,112.860383,125.196939,120.887476,50.050105,123.736516,"C",30.079499,124.493661,13.008895,124.885104,0,125.001,"C",0,125.001,667.016,125.001,952.88,125.001,"C",1490.279,125.001,2206.811,125.001,2744.21,125.001,"C",3072.947,125.001,3840,125.001,3840,125.001,"C",3741.9,121.821,3514.71,111.338,3390.79,94.8518,"C",3235.89,74.2442,3189.42,108.767,3111.47,108.767,"C",3033.52,108.767,2850.639994,60.2548,2744.21,66.3587,"C",2670.259996,70.59983,2591.309596,125.002466,2481.88,94.8518,"C",2372.459596,64.703666,2342.293637,80.895371,2256.03,108.767,"C",2185.645868,131.507989,2082.13998,117.381096,1976.21,94.8518,"C",1870.27998,72.322496,1830.309449,86.235877,1759.85,108.767,"C",1689.399449,131.295277,1611.950114,103.465278,1463.05,79.9427,"C",1314.140114,56.418578,1216.693451,104.118855,1113.28,86.2376,"Z"],"e":[0.42,0,0.58,1]},{"t":2500,"v":["M",1146.243969,87.797411,"C",1060.01446,90.348184,1023.288101,109.534262,969.729776,109.539204,"C",913.08101,109.544432,801.596894,65.720602,677.450203,86.430056,"C",573.65668,103.744309,522.355849,90.436492,376.117677,83.872398,"C",276.962539,79.421688,261.799554,111.114762,50.014258,122.776035,"C",34.442918,123.63342,17.808676,124.382518,0,125.001,"C",0,125.001,667.016,125.001,952.88,125.001,"C",1490.279,125.001,2206.811,125.001,2744.21,125.001,"C",3072.947,125.001,3840,125.001,3840,125.001,"C",3741.9,121.821,3559.975403,99.709083,3434.999687,102.714396,"C",3277.185143,106.50939,3186.185662,75.59705,3108.235662,75.59705,"C",3030.285662,75.59705,2871.598368,96.553593,2765.168374,102.657493,"C",2691.21837,106.898623,2686.667605,99.196788,2573.879716,86.457148,"C",2482.432686,76.128005,2388.389755,124.723542,2287.885993,105.43136,"C",2207.693176,90.037962,2146.945551,44.645717,2013.928783,73.587838,"C",1880.912016,102.529958,1853.957615,113.200646,1777.515797,107.25585,"C",1703.782131,101.521664,1644.024398,68.995725,1529.903098,87.518606,"C",1339.042916,118.496876,1251.142771,84.694378,1146.243969,87.797411,"Z"],"e":[0.42,0,0.58,1]},{"t":5000,"v":["M",1113.28,86.2376,"C",1051.813998,75.609492,1006.340008,63.112432,952.88,66.3587,"C",899.414008,69.605332,789.986,108.767,662.069,86.2376,"C",534.152,63.7081,487.682058,66.359006,336.781,94.8518,"C",241.405509,112.860383,125.196939,120.887476,50.050105,123.736516,"C",30.079499,124.493661,13.008895,124.885104,0,125.001,"C",0,125.001,667.016,125.001,952.88,125.001,"C",1490.279,125.001,2206.811,125.001,2744.21,125.001,"C",3072.947,125.001,3840,125.001,3840,125.001,"C",3741.9,121.821,3514.71,111.338,3390.79,94.8518,"C",3235.89,74.2442,3189.42,108.767,3111.47,108.767,"C",3033.52,108.767,2850.639994,60.2548,2744.21,66.3587,"C",2670.259996,70.59983,2591.309596,125.002466,2481.88,94.8518,"C",2372.459596,64.703666,2342.293637,80.895371,2256.03,108.767,"C",2185.645868,131.507989,2082.13998,117.381096,1976.21,94.8518,"C",1870.27998,72.322496,1830.309449,86.235877,1759.85,108.767,"C",1689.399449,131.295277,1611.950114,103.465278,1463.05,79.9427,"C",1314.140114,56.418578,1216.693451,104.118855,1113.28,86.2376,"Z"],"e":[0.42,0,0.58,1]}]},"eyk03bKERav14":{"transform":{"data":{"t":{"x":-1471.789304,"y":-89.610902}},"keys":{"o":[{"t":0,"v":{"x":1471.789304,"y":89.610903,"type":"cusp","end":{"x":1470.472363,"y":89.877847}},"e":[0.450455,0.04896,0.719748,0.536035]},{"t":1300,"v":{"x":1466.413775,"y":92.21175,"type":"cusp","start":{"x":1467.594928,"y":91.227843},"end":{"x":1464.069656,"y":94.164413}},"e":[0.278939,0.461027,0.567064,0.902714]},{"t":2500,"v":{"x":1460.857753,"y":103.412575,"type":"cusp","start":{"x":1461.826515,"y":99.07933},"end":{"x":1460.622815,"y":103.47131}},"e":[0.450455,0.04896,0.719748,0.536035]},{"t":3800,"v":{"x":1465.809146,"y":91.068552,"type":"cusp","start":{"x":1463.29431,"y":92.722407},"end":{"x":1468.323982,"y":89.414697}},"e":[0.273182,0.48527,0.555976,0.948791]},{"t":5000,"v":{"x":1471.789304,"y":89.610903,"type":"cusp","start":{"x":1471.789304,"y":89.610903}},"e":[0.450455,0.04896,0.719748,0.536035]}],"r":[{"t":0,"v":0,"e":[0.445,0.05,0.55,0.95]},{"t":2500,"v":-7.676672,"e":[0.445,0.05,0.55,0.95]},{"t":5000,"v":0,"e":[0.449487,0.048818,0.565959,0.902382]}]}}},"eyk03bKERav15":{"d":[{"t":0,"v":["M",1426.38,84.5027,"L",1413.09,66.2771,"L",1537.91,70.1183,"L",1519.49,94.5173,"L",1426.38,84.5027,"Z"],"e":[0.445,0.05,0.55,0.95]},{"t":2500,"v":["M",1429.728374,90.535118,"L",1413.09,66.2771,"L",1537.91,70.1183,"L",1523.116883,89.574017,"L",1429.728374,90.535118,"Z"],"e":[0.445,0.05,0.55,0.95]},{"t":5000,"v":["M",1426.38,84.5027,"L",1413.09,66.2771,"L",1537.91,70.1183,"L",1519.49,94.5173,"L",1426.38,84.5027,"Z"],"e":[0.445,0.05,0.55,0.95]}]},"eyk03bKERav17":{"d":[{"t":0,"v":["M",1442.951768,67.20839,"L",1473.77,21.0601,"M",1473.77,21.0601,"L",1472.973278,68.114416,"L",1509.289771,69.169238,"L",1473.77,21.0601,"Z"],"e":[0.445,0.05,0.55,0.95]},{"t":2500,"v":["M",1442.951768,67.20839,"L",1475.740282,21.403592,"M",1475.740282,21.403592,"L",1472.973278,68.114416,"L",1509.289771,69.169238,"L",1475.740282,21.403592,"Z"],"e":[0.445,0.05,0.55,0.95]},{"t":5000,"v":["M",1442.951768,67.20839,"L",1473.77,21.0601,"M",1473.77,21.0601,"L",1472.973278,68.114416,"L",1509.289771,69.169238,"L",1473.77,21.0601,"Z"]}]},"eyk03bKERav18":{"transform":{"data":{"t":{"x":-1473.56,"y":-13.8927}},"keys":{"o":[{"t":0,"v":{"x":1473.56,"y":13.8927,"type":"corner"},"e":[0.445,0.05,0.55,0.95]},{"t":2500,"v":{"x":1475.530282,"y":14.236192,"type":"corner"},"e":[0.445,0.05,0.55,0.95]},{"t":5000,"v":{"x":1473.56,"y":13.8927,"type":"corner"}}],"k":[{"t":0,"v":{"x":0,"y":0},"e":[0.445,0.05,0.55,0.95]},{"t":2500,"v":{"x":0,"y":17},"e":[0.445,0.05,0.55,0.95]},{"t":5000,"v":{"x":0,"y":0},"e":[0.445,0.05,0.55,0.95]}]}}},"eyk03bKERav19":{"transform":{"data":{"t":{"x":-2009.420288,"y":-107.757359}},"keys":{"o":[{"t":0,"v":{"x":2009.42029,"y":107.757373,"type":"cusp","end":{"x":2011.093606,"y":97.034944}},"e":[0.445,0.05,0.55,0.95]},{"t":2500,"v":{"x":2042.270104,"y":73.579112,"type":"cusp","start":{"x":2032.266042,"y":76.105039},"end":{"x":2032.526523,"y":76.532086}},"e":[0.445,0.05,0.55,0.95]},{"t":5000,"v":{"x":2009.42029,"y":107.757373,"type":"cusp","start":{"x":2012.798138,"y":97.258332}}}],"r":[{"t":0,"v":0,"e":[0.445,0.05,0.55,0.95]},{"t":2500,"v":-18.517438,"e":[0.445,0.05,0.55,0.95]},{"t":5000,"v":0}],"k":[{"t":0,"v":{"x":0,"y":0},"e":[0.445,0.05,0.55,0.95]},{"t":2500,"v":{"x":7,"y":-1},"e":[0.445,0.05,0.55,0.95]},{"t":5000,"v":{"x":0,"y":0}}]}}},"eyk03bKERav26":{"stroke-dashoffset":[{"t":0,"v":81.05},{"t":5000,"v":162.1}],"stroke-dasharray":[{"t":1200,"v":[65,16]},{"t":3500,"v":[55,26]},{"t":5000,"v":[65,16]}]},"eyk03bKERav28":{"opacity":[{"t":590,"v":0},{"t":600,"v":1},{"t":1400,"v":1},{"t":1410,"v":0,"e":[1,0]},{"t":2300,"v":1},{"t":2700,"v":1},{"t":2710,"v":0}]},"eyk03bKERav29":{"transform":{"data":{"a":1,"r":14.975619},"keys":{"o":[{"t":600,"v":{"x":2404.962149,"y":85.341519,"type":"cusp","end":{"x":2408.228691,"y":72.419578},"a":-75.81338470463557}},{"t":1000,"v":{"x":2436.368156,"y":71.511387,"type":"cusp","start":{"x":2420.936328,"y":62.559284},"end":{"x":2445.232783,"y":76.653814}}},{"t":1400,"v":{"x":2466.368156,"y":91.511387,"type":"cusp","start":{"x":2457.903391,"y":85.113031}},"e":[1,0]},{"t":2300,"v":{"x":2392.962149,"y":107.341519,"type":"cusp","end":{"x":2394.259668,"y":101.845367}}},{"t":2700,"v":{"x":2406.962149,"y":107.341519,"type":"cusp","start":{"x":2400.742191,"y":91.967588},"a":67.97281533076642}}],"s":[{"t":800,"v":{"x":1,"y":0.590011}},{"t":1300,"v":{"x":0.47,"y":0.28},"e":[1,0]},{"t":2300,"v":{"x":1,"y":0.590011}}]}}},"eyk03bKERav30":{"transform":{"data":{"a":1,"r":0.70706},"keys":{"o":[{"t":600,"v":{"x":2400.808744,"y":84.195169,"type":"cusp","end":{"x":2403.344284,"y":67.001939},"a":-81.61087793185703}},{"t":1000,"v":{"x":2424.692288,"y":52.263895,"type":"cusp","start":{"x":2416.497145,"y":50.802286},"end":{"x":2438.230168,"y":54.678385}}},{"t":1400,"v":{"x":2448.973901,"y":91.118983,"type":"cusp","start":{"x":2447.184369,"y":71.711139}},"e":[1,0]},{"t":2300,"v":{"x":2391.755145,"y":108.298886,"type":"cusp","end":{"x":2401.12873,"y":98.732031}}},{"t":2700,"v":{"x":2418.682916,"y":104.86949,"type":"cusp","start":{"x":2405.670571,"y":100.471459},"a":18.674693653975496}}],"s":[{"t":800,"v":{"x":1,"y":1}},{"t":1300,"v":{"x":0.65,"y":0.65},"e":[1,0]},{"t":2300,"v":{"x":1,"y":1}}]}}},"eyk03bKERav31":{"transform":{"data":{"a":1,"r":67.099293},"keys":{"o":[{"t":600,"v":{"x":2390.185738,"y":89.877847,"type":"cusp","end":{"x":2389.049805,"y":70.080193},"a":-93.28386815162808}},{"t":1000,"v":{"x":2420.687197,"y":62.996848,"type":"cusp","start":{"x":2407.700962,"y":59.82002},"end":{"x":2433.821129,"y":66.209807}}},{"t":1400,"v":{"x":2449.808627,"y":93.292528,"type":"cusp","start":{"x":2443.384366,"y":76.918286},"a":68.5779643124371},"e":[1,0]}],"s":[{"t":800,"v":{"x":1,"y":1}},{"t":1300,"v":{"x":0.33,"y":0.33},"e":[1,0]}]}},"opacity":[{"t":1800,"v":1},{"t":1830,"v":0}]},"eyk03bKERav32":{"transform":{"data":{"a":1,"r":-67.02695},"keys":{"o":[{"t":600,"v":{"x":2391.146557,"y":88.479758,"type":"cusp","end":{"x":2391.623551,"y":79.760758},"a":-86.86861717742771}},{"t":1000,"v":{"x":2373.905635,"y":65.619196,"type":"cusp","start":{"x":2383.462201,"y":61.484795},"end":{"x":2361.173563,"y":71.127397}}},{"t":1400,"v":{"x":2358.523915,"y":110.984475,"type":"cusp","start":{"x":2358.137511,"y":95.644869}},"e":[1,0]},{"t":2300,"v":{"x":2391.146557,"y":108.479758,"type":"cusp","end":{"x":2377.222574,"y":106.663729}}},{"t":2700,"v":{"x":2363.342895,"y":113.467602,"type":"cusp","start":{"x":2367.954686,"y":109.546896},"a":139.63053287161108},"e":[1,0]}],"s":[{"t":800,"v":{"x":1,"y":1}},{"t":1300,"v":{"x":0.42,"y":0.42},"e":[1,0]},{"t":2300,"v":{"x":1,"y":1}}]}}},"eyk03bKERav33":{"transform":{"data":{"a":1,"r":-77.354839,"t":{"x":0,"y":-0.000001}},"keys":{"o":[{"t":600,"v":{"x":2379.887738,"y":87.393332,"type":"cusp","end":{"x":2379.247984,"y":80.09039},"a":-95.00645735183099}},{"t":1000,"v":{"x":2368.537322,"y":73.422853,"type":"cusp","start":{"x":2375.989416,"y":69.849368},"end":{"x":2357.593327,"y":78.670801}}},{"t":1400,"v":{"x":2348.537322,"y":107.422853,"type":"cusp","start":{"x":2347.351922,"y":92.150281}},"e":[1,0]},{"t":2300,"v":{"x":2387.460164,"y":111.053488,"type":"cusp","end":{"x":2383.351597,"y":101.906484}}},{"t":2700,"v":{"x":2370.400935,"y":109.633192,"type":"cusp","start":{"x":2375.97585,"y":93.73306},"a":109.32172116029787}}],"s":[{"t":800,"v":{"x":0.712864,"y":0.488769}},{"t":1300,"v":{"x":0.44,"y":0.3},"e":[1,0]},{"t":2300,"v":{"x":0.712864,"y":0.488769}}]}}},"eyk03bKERav34":{"transform":{"data":{"a":1,"r":-19.812365},"keys":{"o":[{"t":600,"v":{"x":2375.291462,"y":86.924099,"type":"cusp","end":{"x":2378.142028,"y":80.09039},"a":-67.35736908305483}},{"t":1000,"v":{"x":2353.770461,"y":69.981272,"type":"cusp","start":{"x":2370.078534,"y":64.613155},"end":{"x":2338.977118,"y":74.850786}}},{"t":1400,"v":{"x":2325.552153,"y":112.725544,"type":"cusp","start":{"x":2326.631371,"y":97.346422},"a":94.01410662257034},"e":[1,0]}],"s":[{"t":800,"v":{"x":1,"y":1}},{"t":1300,"v":{"x":0.6,"y":0.6},"e":[1,0]}]}},"opacity":[{"t":1800,"v":1},{"t":1830,"v":0}]},"eyk03bKERav35":{"d":[{"t":2280,"v":["M",2364.703686,113.576267,"C",2368.875056,110.921759,2383.529587,109.707347,2387.009129,107.897985,"C",2388.81639,106.958209,2389.331463,106.565993,2390.052678,106.542575,"C",2390.720028,106.520907,2391.563877,106.815004,2393.771287,107.283243,"C",2398.364281,108.257515,2414.274656,108.454818,2424.134257,111.488542,"C",2429.881167,113.256822,2408.737523,117.924598,2390.098489,119.032889,"C",2376.75974,119.826022,2364.703687,118.796222,2364.703686,113.576267,"Z"],"e":[0.404911,0.405704,0.693945,0.756467]},{"t":2400,"v":["M",2380.014927,107.120655,"C",2382.732715,106.499391,2387.148571,106.710171,2388.238056,99.955367,"C",2388.775221,96.624946,2389.39184,95.04251,2390.114028,94.986072,"C",2390.856592,94.928042,2391.710767,96.48333,2392.704943,99.410625,"C",2394.666015,105.184893,2400.549231,104.095408,2404.035582,103.98646,"C",2406.073216,103.922784,2396.595326,105.216383,2388.909206,106.178426,"C",2383.444529,106.86242,2378.885579,107.378815,2380.014927,107.120655,"Z"],"e":[0.283513,0.628092,0.581632,1]},{"t":2500,"v":["M",2383.786649,106.593095,"C",2386.839008,106.32662,2391.100993,105.649294,2389.90256,97.369212,"C",2389.312475,93.292259,2389.884576,91.117066,2390.591436,90.960681,"C",2391.320172,90.799457,2392.192138,92.783933,2392.081529,97.042367,"C",2391.863632,105.431398,2397.438412,104.728668,2399.13967,104.634154,"C",2395.370541,107.138955,2392.185828,108.040042,2389.606951,108.103228,"C",2387.077081,108.165214,2385.130239,107.420843,2383.786649,106.593095,"Z"],"e":[0.445,0.05,0.55,0.95]},{"t":2700,"v":["M",2380.219269,106.519599,"C",2383.798391,106.117229,2384.946532,106.305829,2387.239797,106.008553,"C",2388.59531,105.832838,2389.649616,105.727078,2391.077086,105.606115,"C",2391.709627,105.552514,2392.415439,105.495928,2393.253201,105.428947,"C",2395.325126,105.263292,2398.614549,104.233512,2400.425815,103.943709,"C",2398.629433,106.479778,2394.958697,108.286389,2389.740296,108.259949,"C",2386.982723,108.245977,2383.792979,107.720142,2380.219269,106.519599,"Z"]}],"transform":{"data":{"t":{"x":-2394.070161,"y":-103.398346}},"keys":{"o":[{"t":2280,"v":{"x":2394.070163,"y":103.398346,"type":"corner"},"e":[0.445,0.05,0.55,0.95]},{"t":2500,"v":{"x":2391.81611,"y":104.218002,"type":"corner"}}]}},"opacity":[{"t":2280,"v":0},{"t":2290,"v":1},{"t":2700,"v":1},{"t":2710,"v":0}]},"eyk03bKERav36":{"d":[{"t":70,"v":["M",2372.978866,108.034527,"C",2376.380089,107.807779,2383.972969,105.88474,2387.833814,105.195629,"C",2391.151479,104.603469,2395.115405,104.879913,2399.010713,104.03303,"C",2404.571932,102.82396,2408.783247,103.87955,2411.035481,103.740458,"C",2416.938318,103.375914,2417.099463,105.592899,2423.618474,104.23241,"C",2421.26036,106.295011,2399.003672,112.094118,2389.717465,112.630568,"C",2383.193985,113.00742,2376.768131,111.964135,2372.978866,108.034527,"Z"]},{"t":480,"v":["M",2368.944879,104.591918,"C",2371.277297,104.33191,2375.797377,103.332406,2377.837116,101.279884,"C",2380.654661,98.444682,2380.166091,98.219214,2381.450006,96.444479,"C",2385.720717,90.541145,2399.014838,102.065978,2404.100746,102.818853,"C",2407.005944,103.248914,2411.030278,103.416128,2414.516629,103.30718,"C",2410.193561,107.334147,2397.552342,111.078129,2389.736495,110.991504,"C",2384.666025,110.935307,2366.612461,104.851926,2368.944879,104.591918,"Z"]},{"t":860,"v":["M",2350.994377,112.94866,"C",2348.539568,110.782828,2352.8919,107.753739,2355.149575,106.711609,"C",2358.632312,105.103998,2365.786473,102.786459,2372.081454,104.178962,"C",2377.433578,104.918029,2429.117292,109.308052,2433.165581,109.811739,"C",2445.849079,111.389815,2474.680342,103.064058,2467.932182,117.813465,"C",2433.270756,144.822469,2385.016017,119.023214,2377.20017,118.936589,"C",2372.1297,118.880392,2353.449185,115.114492,2350.994377,112.94866,"Z"],"e":[0.309015,0.656647,0.639949,1]},{"t":1090,"v":["M",2349.310905,113.73239,"C",2346.407131,111.387822,2352.513161,111.303005,2354.21351,109.541283,"C",2357.013657,106.640067,2366.601578,106.931503,2373.366517,108.621042,"C",2378.820061,109.983061,2392.885398,109.074887,2396.799657,109.796322,"C",2400.152729,110.414325,2469.45536,119.282872,2472.941711,119.173924,"C",2468.618643,123.200891,2383.840309,119.768337,2376.024462,119.681712,"C",2370.953992,119.625515,2352.214679,116.076958,2349.310905,113.73239,"Z"]}],"transform":{"data":{"r":-13.689808,"s":{"x":1.032292,"y":0.768674},"t":{"x":-2392.86211,"y":-111.521587}},"keys":{"o":[{"t":70,"v":{"x":1794.200311,"y":105.512498,"type":"corner"}},{"t":480,"v":{"x":1799.17454,"y":104.318206,"type":"corner"}}]}},"opacity":[{"t":1110,"v":1},{"t":1120,"v":0,"e":[1,0]}]}},"s":"MDPA1ZDk1SjNjNC2U4ZjhjN2I4XZTgzODk4ODNGjNTQ0ZjRhNGSE0YTQ2M2M3ZKTgzOGM3ZjdkDOGVCVDgzODkP4ODNjVjU0NGNI0NjNjODM4ZBTdmOGM3YjhlIVTgzODk4ODhLkM2M1NDRhNDGYzYzgwUzgzOIDY4NjNjNTQ0WYjQ2WDNjVzdLiODY4ZTdmOGRM4ODdiOGU3ZFjNjNTRDODBJPN2I4NjhkN2YW0NjNjOGQ4YUK43ZjdmUzdlMW2M1NFg0YjQ2HM2M4MDhhOGQSzYzU0NGI0YTDRhOTc/"}],"options":"MDPAxMDgyMjk3YOTdiNjg3OTdiCMjk0MTI5NzML3NjY4NmIyOTJg0"},'https://cdn.svgator.com/ply/','__SVGATOR_PLAYER__','2025-02-04',window,document,'script','http://www.w3.org/2000/svg','http://www.w3.org/1999/xlink')
window.addEventListener("message", function (e) {
    let t = new RegExp("svgator.(net|com)$"), a = new RegExp("localhost:(8000|9000)$");
    if (!t.test(e.origin) && !a.test(e.origin)) return;
    if (!e.data) return;
    const n = JSON.parse(e.data), r = document.querySelector("svg");
    r && r.svgatorPlayer && n.command && r.svgatorPlayer[n.command](n.param || "")
}, !1); ]]></script>
</svg>
